<svg xmlns="http://www.w3.org/2000/svg" xmlns:xlink="http://www.w3.org/1999/xlink"><defs><symbol fill="currentColor" class="bi bi-arrow-right" viewBox="0 0 16 16" id="arrow-right"><path fill-rule="evenodd" d="M1 8a.5.5 0 0 1 .5-.5h11.793l-3.147-3.146a.5.5 0 0 1 .708-.708l4 4a.5.5 0 0 1 0 .708l-4 4a.5.5 0 0 1-.708-.708L13.293 8.5H1.5A.5.5 0 0 1 1 8" /></symbol><symbol viewBox="0 0 24 24" fill="none" id="bell"><path d="M18 8C18 6.4087 17.3679 4.88258 16.2426 3.75736C15.1174 2.63214 13.5913 2 12 2C10.4087 2 8.88258 2.63214 7.75736 3.75736C6.63214 4.88258 6 6.4087 6 8C6 15 3 17 3 17H21C21 17 18 15 18 8Z" stroke="currentColor" stroke-width="2" stroke-linecap="round" stroke-linejoin="round" /><path d="M13.73 21C13.5542 21.3031 13.3018 21.5547 12.9982 21.7295C12.6946 21.9044 12.3504 21.9965 12 21.9965C11.6496 21.9965 11.3054 21.9044 11.0018 21.7295C10.6982 21.5547 10.4458 21.3031 10.27 21" stroke="currentColor" stroke-width="2" stroke-linecap="round" stroke-linejoin="round" /></symbol><symbol viewBox="0 0 24 24" fill="none" id="chevron-left"><path d="M15 18L9 12L15 6" stroke="currentColor" stroke-width="2" stroke-linecap="round" stroke-linejoin="round" /></symbol><symbol viewBox="0 0 24 24" fill="none" id="chevron-right"><path d="M9 18L15 12L9 6" stroke="currentColor" stroke-width="2" stroke-linecap="round" stroke-linejoin="round" /></symbol><symbol viewBox="0 0 20 20" fill="none" id="clock"><g clip-path="url(#clock_clip0_164_337)"><path d="M10 0C15.523 0 20 4.477 20 10C20 15.523 15.523 20 10 20C4.477 20 0 15.523 0 10C0 4.477 4.477 0 10 0ZM9.07 5.581C8.88488 5.581 8.70734 5.65454 8.57644 5.78544C8.44554 5.91634 8.372 6.09388 8.372 6.279V11.86C8.372 12.246 8.684 12.558 9.07 12.558H14.651C14.7448 12.5616 14.8384 12.5461 14.9261 12.5127C15.0138 12.4792 15.0939 12.4284 15.1615 12.3633C15.2292 12.2982 15.283 12.2201 15.3197 12.1337C15.3565 12.0473 15.3754 11.9544 15.3754 11.8605C15.3754 11.7666 15.3565 11.6737 15.3197 11.5873C15.283 11.5009 15.2292 11.4228 15.1615 11.3577C15.0939 11.2926 15.0138 11.2418 14.9261 11.2083C14.8384 11.1749 14.7448 11.1594 14.651 11.163H9.767V6.279C9.767 6.09405 9.6936 5.91666 9.56291 5.78579C9.43223 5.65492 9.25495 5.58126 9.07 5.581Z" fill="currentColor" /></g><defs></defs></symbol><clipPath id="clock_clip0_164_337"><rect width="20" height="20" fill="currentColor" /></clipPath><symbol viewBox="0 0 24 24" fill="none" id="close"><path fill-rule="evenodd" clip-rule="evenodd" d="M19.207 6.207a1 1 0 0 0-1.414-1.414L12 10.586 6.207 4.793a1 1 0 0 0-1.414 1.414L10.586 12l-5.793 5.793a1 1 0 1 0 1.414 1.414L12 13.414l5.793 5.793a1 1 0 0 0 1.414-1.414L13.414 12l5.793-5.793z" fill="currentColor" /></symbol><symbol viewBox="0 0 24 24" fill="none" id="envelope"><path d="M4 4H20C21.1 4 22 4.9 22 6V18C22 19.1 21.1 20 20 20H4C2.9 20 2 19.1 2 18V6C2 4.9 2.9 4 4 4Z" stroke="currentColor" stroke-width="2" stroke-linecap="round" stroke-linejoin="round" /><path d="M22 6L12 13L2 6" stroke="currentColor" stroke-width="2" stroke-linecap="round" stroke-linejoin="round" /></symbol><symbol viewBox="0 0 16 16" fill="none" id="facebook"><path fill="currentColor" d="M15 8a7 7 0 00-7-7 7 7 0 00-1.094 13.915v-4.892H5.13V8h1.777V6.458c0-1.754 1.045-2.724 2.644-2.724.766 0 1.567.137 1.567.137v1.723h-.883c-.87 0-1.14.54-1.14 1.093V8h1.941l-.31 2.023H9.094v4.892A7.001 7.001 0 0015 8z" /></symbol><symbol fill="currentColor" class="bi bi-grid-fill" viewBox="0 0 16 16" id="grid"><path d="M1 2.5A1.5 1.5 0 0 1 2.5 1h3A1.5 1.5 0 0 1 7 2.5v3A1.5 1.5 0 0 1 5.5 7h-3A1.5 1.5 0 0 1 1 5.5zm8 0A1.5 1.5 0 0 1 10.5 1h3A1.5 1.5 0 0 1 15 2.5v3A1.5 1.5 0 0 1 13.5 7h-3A1.5 1.5 0 0 1 9 5.5zm-8 8A1.5 1.5 0 0 1 2.5 9h3A1.5 1.5 0 0 1 7 10.5v3A1.5 1.5 0 0 1 5.5 15h-3A1.5 1.5 0 0 1 1 13.5zm8 0A1.5 1.5 0 0 1 10.5 9h3a1.5 1.5 0 0 1 1.5 1.5v3a1.5 1.5 0 0 1-1.5 1.5h-3A1.5 1.5 0 0 1 9 13.5z" /></symbol><symbol viewBox="0 0 24 24" fill="none" id="instagram"><path fill-rule="evenodd" clip-rule="evenodd" d="M2 6C2 3.79086 3.79086 2 6 2H18C20.2091 2 22 3.79086 22 6V18C22 20.2091 20.2091 22 18 22H6C3.79086 22 2 20.2091 2 18V6ZM6 4C4.89543 4 4 4.89543 4 6V18C4 19.1046 4.89543 20 6 20H18C19.1046 20 20 19.1046 20 18V6C20 4.89543 19.1046 4 18 4H6ZM12 9C10.3431 9 9 10.3431 9 12C9 13.6569 10.3431 15 12 15C13.6569 15 15 13.6569 15 12C15 10.3431 13.6569 9 12 9ZM7 12C7 9.23858 9.23858 7 12 7C14.7614 7 17 9.23858 17 12C17 14.7614 14.7614 17 12 17C9.23858 17 7 14.7614 7 12ZM17.5 8C18.3284 8 19 7.32843 19 6.5C19 5.67157 18.3284 5 17.5 5C16.6716 5 16 5.67157 16 6.5C16 7.32843 16.6716 8 17.5 8Z" fill="currentColor" /></symbol><symbol viewBox="0 0 24 24" fill="none" id="linkedin"><path d="M22 3.47059V20.5294C22 20.9194 21.8451 21.2935 21.5693 21.5693C21.2935 21.8451 20.9194 22 20.5294 22H3.47059C3.08056 22 2.70651 21.8451 2.43073 21.5693C2.15494 21.2935 2 20.9194 2 20.5294V3.47059C2 3.08056 2.15494 2.70651 2.43073 2.43073C2.70651 2.15494 3.08056 2 3.47059 2H20.5294C20.9194 2 21.2935 2.15494 21.5693 2.43073C21.8451 2.70651 22 3.08056 22 3.47059ZM7.88235 9.64706H4.94118V19.0588H7.88235V9.64706ZM8.14706 6.41177C8.14861 6.18929 8.10632 5.96869 8.02261 5.76255C7.93891 5.55642 7.81542 5.36879 7.65919 5.21039C7.50297 5.05198 7.31708 4.92589 7.11213 4.83933C6.90718 4.75277 6.68718 4.70742 6.46471 4.70588H6.41177C5.95934 4.70588 5.52544 4.88561 5.20552 5.20552C4.88561 5.52544 4.70588 5.95934 4.70588 6.41177C4.70588 6.86419 4.88561 7.29809 5.20552 7.61801C5.52544 7.93792 5.95934 8.11765 6.41177 8.11765C6.63426 8.12312 6.85565 8.0847 7.06328 8.00458C7.27092 7.92447 7.46074 7.80422 7.62189 7.65072C7.78304 7.49722 7.91237 7.31346 8.00248 7.10996C8.09259 6.90646 8.14172 6.6872 8.14706 6.46471V6.41177ZM19.0588 13.3412C19.0588 10.5118 17.2588 9.41177 15.4706 9.41177C14.8851 9.38245 14.3021 9.50715 13.7799 9.77345C13.2576 10.0397 12.8143 10.4383 12.4941 10.9294H12.4118V9.64706H9.64706V19.0588H12.5882V14.0529C12.5457 13.5403 12.7072 13.0315 13.0376 12.6372C13.3681 12.2429 13.8407 11.9949 14.3529 11.9471H14.4647C15.4 11.9471 16.0941 12.5353 16.0941 14.0176V19.0588H19.0353L19.0588 13.3412Z" fill="currentColor" /></symbol><symbol viewBox="0 0 211 211" fill="none" id="lock"><path opacity="0.5" d="M79.1253 61.5418C79.1253 46.596 90.5545 35.1668 105.5 35.1668C120.446 35.1668 131.875 46.596 131.875 61.5418V79.1252H149.459V61.5418C149.459 36.9252 130.117 17.5835 105.5 17.5835C80.8837 17.5835 61.542 36.9252 61.542 61.5418V79.1252H79.1253V61.5418ZM118.688 127.479C118.688 120.446 112.534 114.292 105.5 114.292C98.467 114.292 92.3128 120.446 92.3128 127.479C92.3128 130.996 94.0712 134.513 96.7087 137.15V149.458C96.7087 154.733 100.225 158.25 105.5 158.25C110.775 158.25 114.292 154.733 114.292 149.458V137.15C116.929 134.513 118.688 130.996 118.688 127.479Z" fill="currentColor" /><path d="M149.459 79.125H61.542C46.5962 79.125 35.167 90.5542 35.167 105.5V167.042C35.167 181.987 46.5962 193.417 61.542 193.417H149.459C164.404 193.417 175.834 181.987 175.834 167.042V105.5C175.834 90.5542 164.404 79.125 149.459 79.125ZM114.292 137.15V149.458C114.292 154.733 110.775 158.25 105.5 158.25C100.225 158.25 96.7087 154.733 96.7087 149.458V137.15C94.0712 134.513 92.3128 130.996 92.3128 127.479C92.3128 120.446 98.467 114.292 105.5 114.292C112.534 114.292 118.688 120.446 118.688 127.479C118.688 130.996 116.929 134.513 114.292 137.15Z" fill="currentColor" /></symbol><symbol viewBox="0 0 25 24" fill="none" id="logout"><path d="M9.5 21H5.5C4.96957 21 4.46086 20.7893 4.08579 20.4142C3.71071 20.0391 3.5 19.5304 3.5 19V5C3.5 4.46957 3.71071 3.96086 4.08579 3.58579C4.46086 3.21071 4.96957 3 5.5 3H9.5" stroke="currentColor" stroke-width="2" stroke-linecap="round" stroke-linejoin="round" /><path d="M16.5 17L21.5 12L16.5 7" stroke="currentColor" stroke-width="2" stroke-linecap="round" stroke-linejoin="round" /><path d="M21.5 12H9.5" stroke="currentColor" stroke-width="2" stroke-linecap="round" stroke-linejoin="round" /></symbol><symbol viewBox="0 0 24 24" fill="none" id="member"><path d="M20 21V19C20 17.9391 19.5786 16.9217 18.8284 16.1716C18.0783 15.4214 17.0609 15 16 15H8C6.93913 15 5.92172 15.4214 5.17157 16.1716C4.42143 16.9217 4 17.9391 4 19V21" stroke="currentColor" stroke-width="2" stroke-linecap="round" stroke-linejoin="round" /><path d="M12 11C14.2091 11 16 9.20914 16 7C16 4.79086 14.2091 3 12 3C9.79086 3 8 4.79086 8 7C8 9.20914 9.79086 11 12 11Z" stroke="currentColor" stroke-width="2" stroke-linecap="round" stroke-linejoin="round" /></symbol><symbol viewBox="0 0 24 24" fill="none" id="menu"><path fill-rule="evenodd" clip-rule="evenodd" d="M3 6C3 5.44772 3.44772 5 4 5H20C20.5523 5 21 5.44772 21 6C21 6.55228 20.5523 7 20 7H4C3.44772 7 3 6.55228 3 6ZM3 12C3 11.4477 3.44772 11 4 11H20C20.5523 11 21 11.4477 21 12C21 12.5523 20.5523 13 20 13H4C3.44772 13 3 12.5523 3 12ZM3 18C3 17.4477 3.44772 17 4 17H20C20.5523 17 21 17.4477 21 18C21 18.5523 20.5523 19 20 19H4C3.44772 19 3 18.5523 3 18Z" fill="currentColor" /></symbol><symbol fill="currentColor" class="bi bi-mic-fill" viewBox="0 0 16 16" id="mic"><path d="M5 3a3 3 0 0 1 6 0v5a3 3 0 0 1-6 0z" /><path d="M3.5 6.5A.5.5 0 0 1 4 7v1a4 4 0 0 0 8 0V7a.5.5 0 0 1 1 0v1a5 5 0 0 1-4.5 4.975V15h3a.5.5 0 0 1 0 1h-7a.5.5 0 0 1 0-1h3v-2.025A5 5 0 0 1 3 8V7a.5.5 0 0 1 .5-.5" /></symbol><symbol fill="currentColor" class="bi bi-dash" viewBox="0 0 16 16" id="minus"><path d="M4 8a.5.5 0 0 1 .5-.5h7a.5.5 0 0 1 0 1h-7A.5.5 0 0 1 4 8" /></symbol><symbol viewBox="0 0 25 24" fill="none" id="people"><g clip-path="url(#people_clip0_2_5)"><path d="M17.5 21V19C17.5 17.9391 17.0786 16.9217 16.3284 16.1716C15.5783 15.4214 14.5609 15 13.5 15H5.5C4.43913 15 3.42172 15.4214 2.67157 16.1716C1.92143 16.9217 1.5 17.9391 1.5 19V21" stroke="currentColor" stroke-width="2" stroke-linecap="round" stroke-linejoin="round" /><path d="M9.5 11C11.7091 11 13.5 9.20914 13.5 7C13.5 4.79086 11.7091 3 9.5 3C7.29086 3 5.5 4.79086 5.5 7C5.5 9.20914 7.29086 11 9.5 11Z" stroke="currentColor" stroke-width="2" stroke-linecap="round" stroke-linejoin="round" /><path d="M23.5 21V19C23.4993 18.1137 23.2044 17.2528 22.6614 16.5523C22.1184 15.8519 21.3581 15.3516 20.5 15.13" stroke="currentColor" stroke-width="2" stroke-linecap="round" stroke-linejoin="round" /><path d="M16.5 3.13C17.3604 3.35031 18.123 3.85071 18.6676 4.55232C19.2122 5.25392 19.5078 6.11683 19.5078 7.005C19.5078 7.89318 19.2122 8.75608 18.6676 9.45769C18.123 10.1593 17.3604 10.6597 16.5 10.88" stroke="currentColor" stroke-width="2" stroke-linecap="round" stroke-linejoin="round" /></g><defs></defs></symbol><clipPath id="people_clip0_2_5"><rect width="24" height="24" fill="currentColor" transform="translate(0.5)" /></clipPath><symbol fill="currentColor" class="bi bi-person" viewBox="0 0 16 16" id="person"><path d="M8 8a3 3 0 1 0 0-6 3 3 0 0 0 0 6m2-3a2 2 0 1 1-4 0 2 2 0 0 1 4 0m4 8c0 1-1 1-1 1H3s-1 0-1-1 1-4 6-4 6 3 6 4m-1-.004c-.001-.246-.154-.986-.832-1.664C11.516 10.68 10.289 10 8 10s-3.516.68-4.168 1.332c-.678.678-.83 1.418-.832 1.664z" /></symbol><symbol fill="currentColor" class="bi bi-play-fill" viewBox="0 0 16 16" id="play"><path d="m11.596 8.697-6.363 3.692c-.54.313-1.233-.066-1.233-.697V4.308c0-.63.692-1.01 1.233-.696l6.363 3.692a.802.802 0 0 1 0 1.393z" /></symbol><symbol fill="currentColor" class="bi bi-plus" viewBox="0 0 16 16" id="plus"><path d="M8 4a.5.5 0 0 1 .5.5v3h3a.5.5 0 0 1 0 1h-3v3a.5.5 0 0 1-1 0v-3h-3a.5.5 0 0 1 0-1h3v-3A.5.5 0 0 1 8 4" /></symbol><symbol viewBox="0 0 100 100" fill="none" id="podcast-icon"><path d="M45.1543 43.9416C45.1543 42.2666 43.8543 40.9083 42.2501 40.9083H35.7501C37.1043 33.9916 42.9668 28.7916 50.0001 28.7916C57.0335 28.7916 62.896 34 64.246 40.9166H53.8751C52.271 40.9166 50.971 42.2708 50.971 43.9416C50.971 45.6166 52.271 46.975 53.8751 46.975H64.5335V53.0333H53.8751C52.271 53.0333 50.971 54.3916 50.971 56.0625C50.971 57.7375 52.271 59.0958 53.8751 59.0958H64.246C63.0876 65.0333 58.6043 69.7083 52.9085 70.9125V80.3083C52.9085 81.9791 51.6043 83.3375 50.0001 83.3375C48.396 83.3375 47.0918 81.9791 47.0918 80.3083V70.9125C41.396 69.7041 36.9126 65.0333 35.7585 59.0958H42.246C43.8543 59.0958 45.1543 57.7375 45.1543 56.0625C45.1543 54.3916 43.8543 53.0333 42.2501 53.0333H35.4668V46.975H42.246C43.8543 46.975 45.1543 45.6166 45.1543 43.9458V43.9416Z" fill="currentColor" /><path d="M49.9997 16.6666C36.1247 16.6666 24.7747 27.9208 23.8913 42.15C22.387 41.3342 20.7026 40.9073 18.9913 40.9083C13.1038 40.9083 8.33301 45.8833 8.33301 52.0208V60.1041C8.33301 66.2375 13.1038 71.2125 18.9913 71.2125C19.1913 71.2125 19.3913 71.2041 19.5872 71.1958V71.2125C25.1455 71.2125 29.6497 66.5166 29.6497 60.7208V43.9375C29.6497 32.225 38.7622 22.7291 49.9997 22.7291C61.2372 22.7291 70.3497 32.225 70.3497 43.9375V60.7208C70.3497 66.5125 74.8497 71.2125 80.4122 71.2125V71.1958C80.608 71.2083 80.808 71.2125 81.008 71.2125C86.8955 71.2125 91.6664 66.2375 91.6664 60.1V52.0166C91.6664 45.8833 86.8955 40.9083 81.008 40.9083C79.2413 40.9083 77.5747 41.3583 76.108 42.15C75.2247 27.9208 63.8705 16.6666 49.9997 16.6666Z" fill="currentColor" /></symbol><symbol viewBox="0 0 24 24" fill="none" id="search"><path d="M11 19C15.4183 19 19 15.4183 19 11C19 6.58172 15.4183 3 11 3C6.58172 3 3 6.58172 3 11C3 15.4183 6.58172 19 11 19Z" stroke="currentColor" stroke-width="2" stroke-linecap="round" stroke-linejoin="round" /><path d="M21 21L16.65 16.65" stroke="currentColor" stroke-width="2" stroke-linecap="round" stroke-linejoin="round" /></symbol><symbol fill="currentColor" class="bi bi-gear" viewBox="0 0 16 16" id="settings"><path d="M8 4.754a3.246 3.246 0 1 0 0 6.492 3.246 3.246 0 0 0 0-6.492M5.754 8a2.246 2.246 0 1 1 4.492 0 2.246 2.246 0 0 1-4.492 0" /><path d="M9.796 1.343c-.527-1.79-3.065-1.79-3.592 0l-.094.319a.873.873 0 0 1-1.255.52l-.292-.16c-1.64-.892-3.433.902-2.54 2.541l.159.292a.873.873 0 0 1-.52 1.255l-.319.094c-1.79.527-1.79 3.065 0 3.592l.319.094a.873.873 0 0 1 .52 1.255l-.16.292c-.892 1.64.901 3.434 2.541 2.54l.292-.159a.873.873 0 0 1 1.255.52l.094.319c.527 1.79 3.065 1.79 3.592 0l.094-.319a.873.873 0 0 1 1.255-.52l.292.16c1.64.893 3.434-.902 2.54-2.541l-.159-.292a.873.873 0 0 1 .52-1.255l.319-.094c1.79-.527 1.79-3.065 0-3.592l-.319-.094a.873.873 0 0 1-.52-1.255l.16-.292c.893-1.64-.902-3.433-2.541-2.54l-.292.159a.873.873 0 0 1-1.255-.52zm-2.633.283c.246-.835 1.428-.835 1.674 0l.094.319a1.873 1.873 0 0 0 2.693 1.115l.291-.16c.764-.415 1.6.42 1.184 1.185l-.159.292a1.873 1.873 0 0 0 1.116 2.692l.318.094c.835.246.835 1.428 0 1.674l-.319.094a1.873 1.873 0 0 0-1.115 2.693l.16.291c.415.764-.42 1.6-1.185 1.184l-.291-.159a1.873 1.873 0 0 0-2.693 1.116l-.094.318c-.246.835-1.428.835-1.674 0l-.094-.319a1.873 1.873 0 0 0-2.692-1.115l-.292.16c-.764.415-1.6-.42-1.184-1.185l.159-.291A1.873 1.873 0 0 0 1.945 8.93l-.319-.094c-.835-.246-.835-1.428 0-1.674l.319-.094A1.873 1.873 0 0 0 3.06 4.377l-.16-.292c-.415-.764.42-1.6 1.185-1.184l.292.159a1.873 1.873 0 0 0 2.692-1.115z" /></symbol><symbol fill="currentColor" class="bi bi-share-fill" viewBox="0 0 16 16" id="share"><path d="M11 2.5a2.5 2.5 0 1 1 .603 1.628l-6.718 3.12a2.499 2.499 0 0 1 0 1.504l6.718 3.12a2.5 2.5 0 1 1-.488.876l-6.718-3.12a2.5 2.5 0 1 1 0-3.256l6.718-3.12A2.5 2.5 0 0 1 11 2.5" /></symbol><symbol viewBox="0 0 30 30" fill="none" id="star"><path d="M15 24.1105L24.27 30L21.81 18.9L30 11.4316L19.215 10.4684L15 0L10.785 10.4684L0 11.4316L8.19 18.9L5.73 30L15 24.1105Z" fill="currentColor" /></symbol><symbol fill="currentColor" class="bi bi-newspaper" viewBox="0 0 16 16" id="timeline"><path d="M0 2.5A1.5 1.5 0 0 1 1.5 1h11A1.5 1.5 0 0 1 14 2.5v10.528c0 .3-.05.654-.238.972h.738a.5.5 0 0 0 .5-.5v-9a.5.5 0 0 1 1 0v9a1.5 1.5 0 0 1-1.5 1.5H1.497A1.497 1.497 0 0 1 0 13.5zM12 14c.37 0 .654-.211.853-.441.092-.106.147-.279.147-.531V2.5a.5.5 0 0 0-.5-.5h-11a.5.5 0 0 0-.5.5v11c0 .278.223.5.497.5z" /><path d="M2 3h10v2H2zm0 3h4v3H2zm0 4h4v1H2zm0 2h4v1H2zm5-6h2v1H7zm3 0h2v1h-2zM7 8h2v1H7zm3 0h2v1h-2zm-3 2h2v1H7zm3 0h2v1h-2zm-3 2h2v1H7zm3 0h2v1h-2z" /></symbol><symbol fill="currentColor" class="bi bi-twitter-x" viewBox="0 0 16 16" id="twitter"><path d="M12.6.75h2.454l-5.36 6.142L16 15.25h-4.937l-3.867-5.07-4.425 5.07H.316l5.733-6.57L0 .75h5.063l3.495 4.633L12.601.75Zm-.86 13.028h1.36L4.323 2.145H2.865l8.875 11.633Z" /></symbol><symbol fill="currentColor" class="bi bi-whatsapp" viewBox="0 0 16 16" id="whatsapp"><path d="M13.601 2.326A7.854 7.854 0 0 0 7.994 0C3.627 0 .068 3.558.064 7.926c0 1.399.366 2.76 1.057 3.965L0 16l4.204-1.102a7.933 7.933 0 0 0 3.79.965h.004c4.368 0 7.926-3.558 7.93-7.93A7.898 7.898 0 0 0 13.6 2.326zM7.994 14.521a6.573 6.573 0 0 1-3.356-.92l-.24-.144-2.494.654.666-2.433-.156-.251a6.56 6.56 0 0 1-1.007-3.505c0-3.626 2.957-6.584 6.591-6.584a6.56 6.56 0 0 1 4.66 1.931 6.557 6.557 0 0 1 1.928 4.66c-.004 3.639-2.961 6.592-6.592 6.592zm3.615-4.934c-.197-.099-1.17-.578-1.353-.646-.182-.065-.315-.099-.445.099-.133.197-.513.646-.627.775-.114.133-.232.148-.43.05-.197-.1-.836-.308-1.592-.985-.59-.525-.985-1.175-1.103-1.372-.114-.198-.011-.304.088-.403.087-.088.197-.232.296-.346.1-.114.133-.198.198-.33.065-.134.034-.248-.015-.347-.05-.099-.445-1.076-.612-1.47-.16-.389-.323-.335-.445-.34-.114-.007-.247-.007-.38-.007a.729.729 0 0 0-.529.247c-.182.198-.691.677-.691 1.654 0 .977.71 1.916.81 2.049.098.133 1.394 2.132 3.383 2.992.47.205.84.326 1.129.418.475.152.904.129 1.246.08.38-.058 1.171-.48 1.338-.943.164-.464.164-.86.114-.943-.049-.084-.182-.133-.38-.232z" /></symbol><symbol viewBox="0 -3 20 20" id="youtube"><defs></defs><g id="youtube_Page-1" stroke="none" stroke-width="1" fill="none" fill-rule="evenodd"><g id="youtube_Dribbble-Light-Preview" transform="translate(-300.000000, -7442.000000)" fill="currentColor"><g id="youtube_icons" transform="translate(56.000000, 160.000000)"><path d="M251.988432,7291.58588 L251.988432,7285.97425 C253.980638,7286.91168 255.523602,7287.8172 257.348463,7288.79353 C255.843351,7289.62824 253.980638,7290.56468 251.988432,7291.58588 M263.090998,7283.18289 C262.747343,7282.73013 262.161634,7282.37809 261.538073,7282.26141 C259.705243,7281.91336 248.270974,7281.91237 246.439141,7282.26141 C245.939097,7282.35515 245.493839,7282.58153 245.111335,7282.93357 C243.49964,7284.42947 244.004664,7292.45151 244.393145,7293.75096 C244.556505,7294.31342 244.767679,7294.71931 245.033639,7294.98558 C245.376298,7295.33761 245.845463,7295.57995 246.384355,7295.68865 C247.893451,7296.0008 255.668037,7296.17532 261.506198,7295.73552 C262.044094,7295.64178 262.520231,7295.39147 262.895762,7295.02447 C264.385932,7293.53455 264.28433,7285.06174 263.090998,7283.18289" id="youtube_youtube-[#168]" /></g></g></g></symbol></defs></svg>